# xmcd
#
# Track frame offsets:
#	150
#	14474
#	30718
#	41749
#	56050
#	74146
#	90406
#	110198
#	126967
#	147913
#	167674
#	177641
#	192528
#	207693
#	231445
#
# Disc length: 3242 seconds
#
# Revision: 1
# Processed by: cddbd v1.5.2PL0 Copyright (c) Steve Scherf et al.
# Submitted via: audiograbber 1.83.01
#
DISCID=f20ca80f
DTITLE=Varoius - mea makamae
DYEAR=1900
DGENRE=Hawaiian
TTITLE0=Israel Kamakawiwo'ole - Kana'l Apuni
TTITLE1=Teresa Bright - Kaulana O Hilo Hanakahi
TTITLE2=Frank Kawaikapuokalani Hewett - Ola I Ka Poi
TTITLE3=Cyril Pahinui - 'Ahulili
TTITLE4=Justin - Ka'iulani
TTITLE5='Ale'a - Hula O Makee
TTITLE6=Denis Pavao - Holei
TTITLE7=Makaha Sons - Kaimana Hila
TTITLE8=Rocky Brown - Kamalani O Keaukaha
TTITLE9='Ale'a - Pua Tuberrose
TTITLE10=Kahuna - Kahua O Mali'o
TTITLE11=Makaha Sons Of Ni'ihau - Ka Hanu O Evalina
TTITLE12=Del Beazley - Mele Au Ka Lono Lani
TTITLE13=Hawaiian All Star Band - Kaulana Na Pua
TTITLE14=Chinky Mahoe - He Mele No Kaho'lawe
EXTD=
EXTT0=
EXTT1=
EXTT2=
EXTT3=
EXTT4=
EXTT5=
EXTT6=
EXTT7=
EXTT8=
EXTT9=
EXTT10=
EXTT11=
EXTT12=
EXTT13=
EXTT14=
PLAYORDER=
